<svg preserveAspectRatio="xMaxYMid slice" viewBox="0 0 1577 810" fill="none" xmlns="http://www.w3.org/2000/svg">
<g id="Constellations" class="constellations">
<g id="ursa_minor">
<g id="lines">
<path id="Line 1" d="M220.5 293.5L251.5 233.5" stroke="#81A6C8"></path>
<path id="Line 1_2" d="M178 279L219.5 212.5" stroke="#81A6C8"></path>
<path id="Line 2" d="M178 279L221 293.5" stroke="#81A6C8"></path>
<path id="Line 3" d="M219.5 212.5L251.5 233.5" stroke="#81A6C8"></path>
<path id="Line 4" d="M251.5 233.5L305.5 192.5" stroke="#81A6C8"></path>
<path id="Line 5" d="M305.5 192.5L366.5 188.5" stroke="#81A6C8"></path>
<path id="Line 6" d="M366.5 188.5L417 196" stroke="#81A6C8"></path>
</g>
<g id="stars">
<circle id="Ellipse 1" cx="220.5" cy="293.5" r="1.5" fill="white"></circle>
<circle id="Ellipse 2" cx="178" cy="279" r="1" fill="white"></circle>
<circle id="Ellipse 3" cx="219.5" cy="212.5" r="0.5" fill="white"></circle>
<circle id="Ellipse 4" cx="251.5" cy="233.5" r="0.5" fill="white"></circle>
<circle id="Ellipse 5" cx="305.5" cy="192.5" r="0.5" fill="white"></circle>
<circle id="Ellipse 6" cx="366.5" cy="188.5" r="0.5" fill="white"></circle>
<circle id="Ellipse 7" cx="417" cy="196" r="2" fill="white"></circle>
</g>
</g>
<g id="orion">
<g id="lines_2">
<path id="Vector 1" d="M1138.5 528.5L1173.5 569.5L1193.5 578.5L1256.5 575.5L1291.5 565.5M1291.5 565.5L1421.5 567.5L1512 629L1533.5 512.5L1411.5 532.5L1337 482L1284.5 496.5L1291.5 565.5Z" stroke="#81A6C8"></path>
<path id="Vector 2" d="M1147.5 503.5L1193.5 563.5L1256.5 575.5" stroke="#81A6C8"></path>
<path id="Vector 3" d="M1319.5 378.5L1337.5 369.5L1362 373L1377.5 381.5L1415.5 399.5L1420.5 418.5" stroke="#81A6C8"></path>
<path id="Vector 4" d="M1411.5 532.5L1418 550L1421.5 567.5" stroke="#81A6C8"></path>
<path id="Line 7" d="M1337 482L1362 373" stroke="#81A6C8"></path>
</g>
<g id="stars_2">
<circle id="Ellipse 8" cx="1138.5" cy="528.5" r="0.5" fill="white"></circle>
<circle id="Ellipse 10" cx="1173.5" cy="569.5" r="0.5" fill="white"></circle>
<circle id="Ellipse 11" cx="1193.5" cy="578.5" r="0.5" fill="white"></circle>
<circle id="Ellipse 12" cx="1193.5" cy="563.5" r="0.5" fill="white"></circle>
<circle id="Ellipse 13" cx="1256.5" cy="575.5" r="0.5" fill="white"></circle>
<circle id="Ellipse 15" cx="1284.5" cy="496.5" r="0.5" fill="white"></circle>
<circle id="Ellipse 16" cx="1337" cy="482" r="2" fill="white"></circle>
<circle id="Ellipse 17" cx="1362" cy="373" r="1" fill="white"></circle>
<circle id="Ellipse 18" cx="1337.5" cy="369.5" r="0.5" fill="white"></circle>
<circle id="Ellipse 19" cx="1319.5" cy="378.5" r="0.5" fill="white"></circle>
<circle id="Ellipse 20" cx="1377.5" cy="381.5" r="0.5" fill="white"></circle>
<circle id="Ellipse 21" cx="1415.5" cy="399.5" r="0.5" fill="white"></circle>
<circle id="Ellipse 22" cx="1420.5" cy="418.5" r="0.5" fill="white"></circle>
<circle id="Ellipse 14" cx="1291.5" cy="565.5" r="3.5" fill="white"></circle>
<circle id="Ellipse 23" cx="1418" cy="550" r="2" fill="white"></circle>
<circle id="Ellipse 26" cx="1533.5" cy="512.5" r="3.5" fill="white"></circle>
<circle id="Ellipse 24" cx="1411.5" cy="532.5" r="1.5" fill="white"></circle>
<circle id="Ellipse 25" cx="1421.5" cy="567.5" r="1.5" fill="white"></circle>
<circle id="Ellipse 27" cx="1512" cy="629" r="1" fill="white"></circle>
<circle id="Ellipse 9" cx="1147.5" cy="503.5" r="0.5" fill="white"></circle>
</g>
</g>
<g id="taurus">
<g id="lines_3">
<path id="Vector 5" d="M1083 401L1176.5 306.5L1228 278L1243.5 271.5L1250 265L1275 260L1267 285L1255.5 304.5L1155 457" stroke="#81A6C8"></path>
<path id="Vector 6" d="M1275 260L1322.5 207.5L1378 96" stroke="#81A6C8"></path>
<path id="Line 8" d="M1250 265L1182 160" stroke="#81A6C8"></path>
<path id="Line 9" d="M1228 278L1255.5 304.5" stroke="#81A6C8"></path>
</g>
<g id="stars_3">
<circle id="Ellipse 28" cx="1155" cy="458" r="1" fill="white"></circle>
<circle id="Ellipse 29" cx="1255.5" cy="305.5" r="3.5" fill="white"></circle>
<circle id="Ellipse 30" cx="1267" cy="286" r="1" fill="white"></circle>
<circle id="Ellipse 31" cx="1228" cy="279" r="1" fill="white"></circle>
<circle id="Ellipse 35" cx="1243.5" cy="272.5" r="0.5" fill="white"></circle>
<circle id="Ellipse 36" cx="1275" cy="261" r="1" fill="white"></circle>
<circle id="Ellipse 37" cx="1322.5" cy="208.5" r="0.5" fill="white"></circle>
<circle id="Ellipse 38" cx="1378" cy="97" r="1" fill="white"></circle>
<circle id="Ellipse 32" cx="1250" cy="266" r="1" fill="white"></circle>
<circle id="Ellipse 33" cx="0.5" cy="0.5" r="0.5" transform="matrix(1 0 0 -1 1176 308)" fill="white"></circle>
<circle id="Ellipse 34" cx="2" cy="2" r="2" transform="matrix(1 0 0 -1 1081 404)" fill="white"></circle>
<g id="Pleiades">
<circle id="Ellipse 39" cx="1182" cy="161" r="1" fill="white"></circle>
<circle id="Ellipse 44" cx="1177.5" cy="150.5" r="0.5" fill="white"></circle>
<circle id="Ellipse 43" cx="1182" cy="150" r="1" fill="white"></circle>
<circle id="Ellipse 42" cx="1179" cy="152" r="1" fill="white"></circle>
<circle id="Ellipse 41" cx="1184" cy="154" r="1" fill="white"></circle>
<circle id="Ellipse 40" cx="1181.5" cy="156.5" r="1.5" fill="white"></circle>
</g>
</g>
</g>
<g id="ursa_major">
<g id="lines_4">
<path id="Vector 10" d="M386.5 776.5L506.5 792.5" stroke="#81A6C8" stroke-opacity="0.5"></path>
<path id="Vector 8" d="M638 647L560 640L635.5 660.5" stroke="#81A6C8" stroke-opacity="0.5"></path>
<path id="Line 11" d="M516.5 626.5L560.058 640.017" stroke="#81A6C8" stroke-opacity="0.5"></path>
<path id="Vector 9" d="M289 655L298.5 735.5L386.5 776.5L512.5 773.5" stroke="#81A6C8" stroke-opacity="0.5"></path>
<path id="Vector 11" d="M24.5 616.5L118 576L180.5 591.5L256.5 602.5M256.5 602.5L289 655L388.5 623.5L382.5 555.5L256.5 602.5Z" stroke="#81A6C8"></path>
<path id="Vector 12" d="M388.5 623.5L516.5 626.5L498.5 569.5L596 498L508.5 513.5L382.5 555.5" stroke="#81A6C8" stroke-opacity="0.5"></path>
</g>
<g id="stars_4">
<circle id="Ellipse 45" cx="24.5" cy="616.5" r="0.5" fill="white"></circle>
<circle id="Ellipse 46" cx="118" cy="576" r="1" fill="white"></circle>
<circle id="Ellipse 47" cx="180.5" cy="591.5" r="1.5" fill="white"></circle>
<circle id="Ellipse 48" cx="256.5" cy="602.5" r="0.5" fill="white"></circle>
<circle id="Ellipse 49" cx="289" cy="655" r="1" fill="white"></circle>
<circle id="Ellipse 59" cx="298.5" cy="735.5" r="0.5" fill="white"></circle>
<circle id="Ellipse 60" cx="386.5" cy="776.5" r="0.5" fill="white"></circle>
<circle id="Ellipse 61" cx="512.5" cy="773.5" r="0.5" fill="white"></circle>
<circle id="Ellipse 62" cx="506.5" cy="792.5" r="0.5" fill="white"></circle>
<circle id="Ellipse 51" cx="388.5" cy="623.5" r="1.5" fill="white"></circle>
<circle id="Ellipse 50" cx="382.5" cy="555.5" r="1.5" fill="white"></circle>
<circle id="Ellipse 52" cx="508.5" cy="513.5" r="0.5" fill="white"></circle>
<circle id="Ellipse 53" cx="596" cy="498" r="1" fill="white"></circle>
<circle id="Ellipse 54" cx="498.5" cy="569.5" r="0.5" fill="white"></circle>
<circle id="Ellipse 55" cx="516.5" cy="626.5" r="0.5" fill="white"></circle>
<circle id="Ellipse 56" cx="560" cy="640" r="1" fill="white"></circle>
<circle id="Ellipse 57" cx="638" cy="647" r="1" fill="white"></circle>
<circle id="Ellipse 58" cx="635.5" cy="660.5" r="0.5" fill="white"></circle>
</g>
</g>
<g id="gemini">
<g id="lines_5">
<path id="Vector 13" d="M953.5 734.5L945.5 698.5L952.5 671.5L951.5 624.5L940.5 564.5" stroke="#81A6C8"></path>
<path id="Vector 14" d="M919 709L945.5 698.5L1016.5 699.5" stroke="#81A6C8"></path>
<path id="Vector 15" d="M1163 673L1073.5 731.5L1016.5 699.5L1055.5 671.5L1136.5 633.5" stroke="#81A6C8"></path>
<path id="Vector 16" d="M901.5 659.5L951.5 624.5L1038 598" stroke="#81A6C8"></path>
<path id="Vector 17" d="M1107.5 590.5L1038 598L1092 563L1101 544L1105.5 514.5" stroke="#81A6C8"></path>
</g>
<g id="stars_5">
<circle id="Ellipse 63" cx="919" cy="709" r="2" fill="white"></circle>
<circle id="Ellipse 64" cx="945.5" cy="698.5" r="0.5" fill="white"></circle>
<circle id="Ellipse 77" cx="1016.5" cy="699.5" r="0.5" fill="white"></circle>
<circle id="Ellipse 78" cx="1073.5" cy="731.5" r="0.5" fill="white"></circle>
<circle id="Ellipse 79" cx="1163" cy="673" r="1" fill="white"></circle>
<circle id="Ellipse 75" cx="1055.5" cy="671.5" r="0.5" fill="white"></circle>
<circle id="Ellipse 76" cx="1136.5" cy="633.5" r="1.5" fill="white"></circle>
<circle id="Ellipse 66" cx="952.5" cy="671.5" r="0.5" fill="white"></circle>
<circle id="Ellipse 67" cx="951.5" cy="624.5" r="0.5" fill="white"></circle>
<circle id="Ellipse 70" cx="1038" cy="598" r="1" fill="white"></circle>
<circle id="Ellipse 71" cx="1107.5" cy="590.5" r="0.5" fill="white"></circle>
<circle id="Ellipse 72" cx="1092" cy="563" r="1" fill="white"></circle>
<circle id="Ellipse 73" cx="1101" cy="544" r="1" fill="white"></circle>
<circle id="Ellipse 74" cx="1105.5" cy="514.5" r="0.5" fill="white"></circle>
<circle id="Ellipse 69" cx="940.5" cy="564.5" r="0.5" fill="white"></circle>
<circle id="Ellipse 68" cx="901.5" cy="659.5" r="1.5" fill="white"></circle>
<circle id="Ellipse 65" cx="953.5" cy="734.5" r="0.5" fill="white"></circle>
</g>
</g>
<g id="perseus">
<g id="lines_6">
<path id="Vector 18" d="M1001.5 19.5L1001 54L977 64L877 110L903 143L993 174L1041.5 178.5L1088 169L1083.5 143.5" stroke="#81A6C8"></path>
<path id="Vector 19" d="M796.5 64.5L829 81L877 110" stroke="#81A6C8"></path>
</g>
<g id="stars_6">
<circle id="Ellipse 80" cx="796.5" cy="64.5" r="0.5" fill="white"></circle>
<circle id="Ellipse 81" cx="829" cy="81" r="1" fill="white"></circle>
<circle id="Ellipse 82" cx="877" cy="110" r="2" fill="white"></circle>
<circle id="Ellipse 88" cx="977" cy="64" r="2" fill="white"></circle>
<circle id="Ellipse 89" cx="977" cy="64" r="2" fill="white"></circle>
<circle id="Ellipse 90" cx="1001" cy="54" r="1" fill="white"></circle>
<circle id="Ellipse 91" cx="1001.5" cy="19.5" r="0.5" fill="white"></circle>
<circle id="Ellipse 83" cx="903" cy="143" r="1" fill="white"></circle>
<circle id="Ellipse 84" cx="993" cy="174" r="1" fill="white"></circle>
<circle id="Ellipse 85" cx="1041.5" cy="178.5" r="0.5" fill="white"></circle>
<circle id="Ellipse 86" cx="1088" cy="169" r="1" fill="white"></circle>
<circle id="Ellipse 87" cx="1083.5" cy="143.5" r="0.5" fill="white"></circle>
</g>
</g>
</g>
</svg>