<svg width="229" height="229" viewBox="0 0 229 229" fill="none" xmlns="http://www.w3.org/2000/svg">
<g clip-path="url(#clip0_7_73)">
<circle cx="114.551" cy="114.551" r="81" transform="rotate(-45 114.551 114.551)" fill="#FF932F"/>
<mask id="mask0_7_73" style="mask-type:alpha" maskUnits="userSpaceOnUse" x="33" y="33" width="163" height="163">
<circle cx="114.551" cy="114.551" r="81" transform="rotate(-45 114.551 114.551)" fill="black"/>
</mask>
<g mask="url(#mask0_7_73)">
<circle cx="151.321" cy="152.321" r="81" transform="rotate(-45 151.321 152.321)" fill="black"/>
</g>
<path d="M91.492 97.388L73.516 143H62.596L82.504 92.6C84.604 87.308 88.468 85.292 94.432 85.292C100.312 85.292 104.176 87.308 106.192 92.6L125.344 143H114.34L97.12 97.388C96.616 96.044 95.692 95.456 94.348 95.456C93.004 95.456 92.08 96.044 91.492 97.388ZM151.147 86.3H161.143V123.428C161.143 134.768 155.179 143 140.143 143H120.907V133.088H139.555C148.459 133.088 151.147 128.804 151.147 123.344V86.3Z" fill="white"/>
<path d="M91.492 97.388L88.7435 96.1855L88.7213 96.2364L88.7009 96.288L91.492 97.388ZM73.516 143V146H75.5583L76.3071 144.1L73.516 143ZM62.596 143L59.8058 141.898L58.1854 146H62.596V143ZM82.504 92.6L79.7155 91.4935L79.7138 91.4979L82.504 92.6ZM106.192 92.6L108.996 91.5343L108.995 91.532L106.192 92.6ZM125.344 143V146H129.693L128.148 141.934L125.344 143ZM114.34 143L111.533 144.06L112.266 146H114.34V143ZM97.12 97.388L94.311 98.4414L94.3134 98.4476L97.12 97.388ZM88.7009 96.288L70.7249 141.9L76.3071 144.1L94.2831 98.488L88.7009 96.288ZM73.516 140H62.596V146H73.516V140ZM65.3862 144.102L85.2942 93.7021L79.7138 91.4979L59.8058 141.898L65.3862 144.102ZM85.2925 93.7065C86.146 91.5557 87.2484 90.31 88.5443 89.5448C89.8944 88.7477 91.7607 88.292 94.432 88.292V82.292C91.1393 82.292 88.0916 82.8443 85.4937 84.3782C82.8416 85.944 80.962 88.3523 79.7155 91.4935L85.2925 93.7065ZM94.432 88.292C97.0569 88.292 98.8974 88.7462 100.224 89.5376C101.494 90.2959 102.575 91.5312 103.389 93.668L108.995 91.532C107.793 88.3768 105.934 85.9581 103.298 84.3854C100.719 82.8458 97.6871 82.292 94.432 82.292V88.292ZM103.388 93.6657L122.54 144.066L128.148 141.934L108.996 91.5343L103.388 93.6657ZM125.344 140H114.34V146H125.344V140ZM117.147 141.94L99.9266 96.3284L94.3134 98.4476L111.533 144.06L117.147 141.94ZM99.929 96.3346C99.513 95.2252 98.8242 94.1792 97.739 93.4393C96.659 92.7029 95.4594 92.456 94.348 92.456V98.456C94.4675 98.456 94.5105 98.4693 94.4993 98.4662C94.493 98.4646 94.4748 98.4591 94.4482 98.4471C94.4213 98.435 94.3906 98.4183 94.359 98.3967C94.3273 98.3751 94.3003 98.3524 94.2787 98.3313C94.2573 98.3104 94.2454 98.2951 94.2416 98.2898C94.2343 98.2799 94.265 98.3187 94.311 98.4414L99.929 96.3346ZM94.348 92.456C93.2283 92.456 92.0456 92.7064 90.9724 93.4218C89.9066 94.1324 89.2049 95.1309 88.7435 96.1855L94.2405 98.5905C94.3049 98.4432 94.3516 98.3786 94.3633 98.3636C94.3716 98.353 94.3519 98.3799 94.3006 98.4141C94.277 98.4299 94.2533 98.4427 94.2317 98.4524C94.2103 98.4619 94.196 98.4661 94.1921 98.4671C94.1848 98.4691 94.2294 98.456 94.348 98.456V92.456ZM151.147 86.3V83.3H148.147V86.3H151.147ZM161.143 86.3H164.143V83.3H161.143V86.3ZM120.907 143H117.907V146H120.907V143ZM120.907 133.088V130.088H117.907V133.088H120.907ZM151.147 89.3H161.143V83.3H151.147V89.3ZM158.143 86.3V123.428H164.143V86.3H158.143ZM158.143 123.428C158.143 128.603 156.786 132.638 154.128 135.378C151.489 138.099 147.125 140 140.143 140V146C148.197 146 154.333 143.785 158.435 139.555C162.519 135.344 164.143 129.593 164.143 123.428H158.143ZM140.143 140H120.907V146H140.143V140ZM123.907 143V133.088H117.907V143H123.907ZM120.907 136.088H139.555V130.088H120.907V136.088ZM139.555 136.088C144.439 136.088 148.236 134.915 150.792 132.404C153.361 129.88 154.147 126.528 154.147 123.344H148.147C148.147 125.62 147.589 127.14 146.588 128.123C145.574 129.119 143.575 130.088 139.555 130.088V136.088ZM154.147 123.344V86.3H148.147V123.344H154.147Z" fill="white"/>
</g>
<defs>
<clipPath id="clip0_7_73">
<rect width="229" height="229" fill="white"/>
</clipPath>
</defs>
</svg>
